<?xml version="1.0" encoding="utf-8"?>
<!-- Generator: Adobe Illustrator 24.2.1, SVG Export Plug-In . SVG Version: 6.00 Build 0)  -->
<svg version="1.1" id="Ebene_1" xmlns="http://www.w3.org/2000/svg" xmlns:xlink="http://www.w3.org/1999/xlink" x="0px" y="0px"
	 width="147px" height="39px" viewBox="0 0 147 39" style="enable-background:new 0 0 147 39;" xml:space="preserve">
<style type="text/css">
	.st0{fill:#090909;}
</style>
<g>
	<path class="st0" d="M29.8,38.3h-7.4V17.7h-9.6v20.6H5.5V17.7H1.1v-6.2h4.4V9.2c0-2.4,0.7-4.2,2-5.5c1.4-1.3,3.4-1.9,6.1-1.9h5.2
		v6.3h-3.7c-0.8,0-1.3,0.2-1.7,0.5s-0.5,0.9-0.5,1.7v1.3h17V38.3z M23.1,7.5c-0.8-0.8-1.2-1.8-1.2-3c0-1.2,0.4-2.2,1.2-2.9
		s1.8-1.2,3-1.2s2.2,0.4,3.1,1.2c0.8,0.8,1.2,1.8,1.2,2.9c0,1.2-0.4,2.2-1.2,3c-0.8,0.8-1.8,1.2-3.1,1.2S23.9,8.3,23.1,7.5z"/>
	<path class="st0" d="M34.9,1.8h7.4v36.5h-7.4V1.8z"/>
	<path class="st0" d="M85.6,14.1c1.8,1.9,2.7,5.1,2.7,9.5v14.8H81v-15c0-4.1-1.5-6.1-4.6-6.1c-1.6,0-2.9,0.6-3.9,1.7
		c-1,1.1-1.5,2.7-1.5,4.7v14.7h-7.4v-15c0-4.1-1.6-6.1-4.7-6.1c-1.6,0-2.9,0.6-3.8,1.7c-1,1.2-1.4,2.7-1.4,4.7v14.7h-7.4V11.5h6.4
		l0.7,3.3c0.9-1.1,2-2,3.2-2.7c1.3-0.6,2.8-1,4.7-1c3.8,0,6.5,1.5,8,4.5c1-1.5,2.3-2.6,3.8-3.4s3.4-1.2,5.4-1.2
		C81.5,11.2,83.8,12.2,85.6,14.1z"/>
	<path class="st0" d="M97.6,36.9c-2.1-1.1-3.8-2.7-5-4.8c-1.2-2.1-1.7-4.5-1.7-7.2c0-2.7,0.6-5.1,1.7-7.2s2.8-3.7,5-4.8
		c2.1-1.1,4.6-1.7,7.4-1.7s5.3,0.6,7.4,1.7s3.8,2.7,5,4.8c1.2,2.1,1.7,4.5,1.7,7.2c0,2.7-0.6,5.2-1.7,7.2c-1.2,2.1-2.8,3.7-5,4.8
		s-4.6,1.7-7.4,1.7S99.7,38.1,97.6,36.9z M109.9,30.5c1.2-1.4,1.8-3.3,1.8-5.6s-0.6-4.2-1.8-5.6c-1.2-1.4-2.8-2.1-4.9-2.1
		c-2,0-3.6,0.7-4.8,2.1s-1.8,3.3-1.8,5.6s0.6,4.2,1.8,5.6s2.8,2.1,4.8,2.1C107.1,32.6,108.7,31.9,109.9,30.5z"/>
	<path class="st0" d="M128,29.4c0.1,1.2,0.7,2.1,1.7,2.9c1,0.7,2.4,1.1,4,1.1c1.6,0,2.8-0.3,3.7-0.8s1.4-1.2,1.4-2.2
		c0-0.7-0.2-1.2-0.6-1.6c-0.4-0.3-1-0.6-1.8-0.8c-0.8-0.2-2-0.3-3.8-0.5c-2.4-0.3-4.3-0.7-5.9-1.2c-1.6-0.5-2.8-1.3-3.8-2.3
		c-0.9-1-1.4-2.4-1.4-4.2c0-1.7,0.5-3.3,1.4-4.6c1-1.3,2.3-2.4,4-3.1s3.7-1.1,6-1.1c3.7,0,6.6,0.8,8.8,2.3s3.5,3.7,3.6,6.4h-7
		c-0.1-1-0.6-1.8-1.6-2.5s-2.2-1-3.7-1c-1.4,0-2.5,0.3-3.4,0.8c-0.9,0.5-1.3,1.2-1.3,2.1c0,0.6,0.2,1.1,0.7,1.4
		c0.5,0.3,1,0.5,1.8,0.7c0.7,0.1,1.9,0.3,3.7,0.5c3.6,0.4,6.4,1.2,8.3,2.3s2.9,3.1,2.9,5.8c0,1.7-0.5,3.3-1.5,4.6
		c-1,1.3-2.5,2.3-4.3,3.1s-3.9,1.1-6.3,1.1c-3.7,0-6.7-0.8-9.1-2.5s-3.6-3.9-3.7-6.8H128z"/>
</g>
</svg>
