<?xml version="1.0" encoding="utf-8"?>
<!-- Generator: Adobe Illustrator 24.2.1, SVG Export Plug-In . SVG Version: 6.00 Build 0)  -->
<svg version="1.1" id="Ebene_1" xmlns="http://www.w3.org/2000/svg" xmlns:xlink="http://www.w3.org/1999/xlink" x="0px" y="0px"
	 viewBox="0 0 24 24" style="enable-background:new 0 0 24 24;" xml:space="preserve">
<style type="text/css">
	.st0{fill:#FFFFFF;}
</style>
<path class="st0" d="M12,0C5.4,0,0,5.4,0,12s5.4,12,12,12s12-5.4,12-12S18.6,0,12,0z M21.9,11.4C19.3,11,17,11,14.8,11.3
	c-0.2-0.6-0.5-1.1-0.8-1.7c2.3-1,4.2-2.4,5.5-4.1C20.9,7.2,21.8,9.2,21.9,11.4z M18,4.2c-1.2,1.6-2.9,2.8-5,3.7
	C12,6,10.9,4.2,9.6,2.4c0.8-0.2,1.6-0.3,2.4-0.3C14.3,2.1,16.4,2.9,18,4.2z M7.5,3.2C8.8,4.9,10,6.7,11,8.6c-2.4,0.7-5.3,1-8.6,1.1
	C3.1,6.8,5,4.5,7.5,3.2z M2.1,12v-0.3c3.8,0,7.2-0.4,9.9-1.3c0.2,0.5,0.5,1,0.7,1.4c-3.4,1.1-6.2,3.2-8.3,6.5
	C3,16.6,2.1,14.4,2.1,12z M5.9,19.8c2-3.1,4.5-5.1,7.6-6c0.9,2.4,1.6,4.9,2,7.5C12.2,22.5,8.6,21.9,5.9,19.8z M17.5,20.2
	c-0.4-2.4-1.1-4.7-1.9-6.9c1.9-0.3,3.9-0.2,6.2,0.2C21.3,16.3,19.8,18.7,17.5,20.2z"/>
</svg>
